#!OML:ASF X:\für Bonn\!DataBase\2005_08_12_Daniel\c3d\Daniel.ASF
:FULLY-SPECIFIED
:DEGREES
93
root -4.01639 16.4156 14.0678 -534.427 43.7758 -523.852
lowerback 16.7079 -0.522698 3.23582
upperback 3.40391 0.120572 -0.815774
thorax -5.71851 0.131678 -2.74283
lowerneck -5.1339 9.36393 -1.36322
upperneck -5.88697 12.6231 -9.83513
head -0.402072 6.52514 -2.6705
rclavicle 2.22639e-014 2.06736e-014
rhumerus -55.1809 13.7422 -105.569
rradius 82.4311
rwrist -2.04128
rhand -25.627 31.8416
rfingers 7.12502
rthumb 0.906028 1.86374
lclavicle 2.22639e-014 2.06736e-014
lhumerus -60.4259 4.0394 92.708
lradius 110.916
lwrist 17.6103
lhand -8.50828 -12.6101
lfingers 7.12502
lthumb 17.4197 16.6293
rfemur -0.67035 -5.87621 18.6922
rtibia 81.244
rfoot 2.19036 1.42664
rtoes -17.598
lfemur -21.44 8.31537 -28.6247
ltibia 56.7204
lfoot -27.5858 5.69725
ltoes 13.4843
94
root -3.82528 16.32 13.8968 -535.045 43.0055 -524.482
lowerback 16.9518 -0.642681 2.55428
upperback 3.45338 -0.142658 -0.848651
thorax -5.81456 0.016747 -2.33557
lowerneck -4.88128 9.5927 -1.15243
upperneck -6.39638 12.8883 -10.3698
head -0.542248 6.69185 -2.90378
rclavicle -1.43125e-014 5.56597e-014
rhumerus -54.7747 12.2683 -104.509
rradius 80.7099
rwrist -1.51505
rhand -26.2205 31.7945
rfingers 7.12502
rthumb 0.332765 1.81504
lclavicle -1.43125e-014 5.56597e-014
lhumerus -58.5844 4.52239 93.14
lradius 111.537
lwrist 17.0604
lhand -9.01305 -12.6125
lfingers 7.12502
lthumb 16.9339 16.6693
rfemur -2.75628 -5.91009 18.1268
rtibia 83.8911
rfoot 1.64121 0.482899
rtoes -15.8262
lfemur -20.6247 8.06677 -28.86
ltibia 57.6698
lfoot -29.1422 5.05439
ltoes 14.0069
95
root -3.63834 16.2328 13.7193 -535.542 42.2236 -525.05
lowerback 17.1685 -0.778678 1.86153
upperback 3.46022 -0.434166 -0.840964
thorax -5.93585 -0.113414 -1.87073
lowerneck -4.63759 9.87653 -0.894309
upperneck -6.84049 13.227 -10.8906
head -0.652993 6.89098 -3.13785
rclavicle 1.31198e-014 -1.43125e-014
rhumerus -54.6403 10.8523 -103.393
rradius 79.1343
rwrist -0.947436
rhand -26.8869 31.9518
rfingers 7.12502
rthumb -0.310866 1.97226
lclavicle 1.31198e-014 -1.43125e-014
lhumerus -56.6804 5.2154 93.635
lradius 112.104
lwrist 16.3709
lhand -9.47704 -12.6566
lfingers 7.12502
lthumb 16.4872 16.6629
rfemur -4.94153 -6.02297 17.5584
rtibia 86.3349
rfoot 1.11815 -0.424498
rtoes -14.3172
lfemur -19.7319 7.91897 -29.0324
ltibia 58.3903
lfoot -30.6865 4.25357
ltoes 14.5245
96
root -3.45836 16.1565 13.5333 -535.963 41.4186 -525.551
lowerback 17.3668 -0.944294 1.25523
upperback 3.45732 -0.752981 -0.822951
thorax -6.05194 -0.257775 -1.43622
lowerneck -4.45378 10.1941 -0.640696
upperneck -7.16611 13.6188 -11.3346
head -0.716637 7.10796 -3.33772
rclavicle 2.48481e-014 4.45278e-014
rhumerus -54.6679 9.53042 -102.266
rradius 77.6837
rwrist -0.349287
rhand -27.6581 32.1705
rfingers 7.12502
rthumb -1.05574 2.19332
lclavicle 2.48481e-014 4.45278e-014
lhumerus -54.8091 5.95984 94.193
lradius 112.679
lwrist 15.7136
lhand -9.96166 -12.7788
lfingers 7.12502
lthumb 16.0206 16.5788
rfemur -7.13236 -6.13961 17.0135
rtibia 88.5367
rfoot 0.509693 -1.28904
rtoes -13.0105
lfemur -18.7225 7.69633 -29.1904
ltibia 58.8679
lfoot -32.1284 3.52633
ltoes 14.8173
97
root -3.28272 16.0938 13.3378 -536.305 40.6137 -525.973
lowerback 17.5292 -1.12773 0.73392
upperback 3.43646 -1.08382 -0.787907
thorax -6.1622 -0.409488 -1.02757
lowerneck -4.23098 10.5195 -0.41523
upperneck -7.45902 14.0214 -11.7287
head -0.7791 7.3293 -3.51882
rclavicle 3.24019e-014 -2.8625e-014
rhumerus -55.0184 8.33786 -101.156
rradius 76.4569
rwrist 0.267532
rhand -28.5213 32.3981
rfingers 7.12502
rthumb -1.88939 2.42676
lclavicle 3.24019e-014 -2.8625e-014
lhumerus -53.0483 6.73824 94.8348
lradius 113.272
lwrist 15.0608
lhand -10.5232 -13.111
lfingers 7.12502
lthumb 15.4798 16.2893
rfemur -9.31193 -6.16032 16.5519
rtibia 90.4289
rfoot -0.126487 -2.07024
rtoes -11.1452
lfemur -17.6037 7.42851 -29.3529
ltibia 59.0906
lfoot -33.3839 3.03215
ltoes 15.0209
98
root -3.11305 16.044 13.1354 -536.529 39.8126 -526.27
lowerback 17.577 -1.3458 0.406137
upperback 3.4213 -1.42777 -0.738819
thorax -6.20255 -0.571018 -0.710939
lowerneck -3.97479 10.852 -0.435487
upperneck -7.75904 14.4397 -11.9774
head -0.876652 7.56343 -3.61662
rclavicle -7.55382e-015 2.06736e-014
rhumerus -55.6462 7.4086 -100.091
rradius 75.5285
rwrist 0.710988
rhand -29.3086 32.6132
rfingers 7.12502
rthumb -2.6497 2.64988
lclavicle -7.55382e-015 2.06736e-014
lhumerus -51.4736 7.47142 95.5115
lradius 113.958
lwrist 14.6091
lhand -11.1087 -13.4868
lfingers 7.12502
lthumb 14.9157 15.9562
rfemur -11.523 -6.11884 16.2197
rtibia 92.0076
rfoot -0.795715 -2.61365
rtoes -8.4673
lfemur -16.4037 7.0748 -29.4743
ltibia 59.084
lfoot -34.4809 2.73181
ltoes 14.9061
99
root -2.94938 16.0071 12.928 -536.694 38.9819 -526.49
lowerback 17.5661 -1.60521 0.23064
upperback 3.40753 -1.79879 -0.673957
thorax -6.20959 -0.748794 -0.458545
lowerneck -3.6486 11.1964 -0.658993
upperneck -8.10312 14.873 -12.1315
head -1.02261 7.81295 -3.66053
rclavicle 5.9039e-014 9.54166e-015
rhumerus -56.4779 6.78236 -99.1066
rradius 75.0107
rwrist 0.841032
rhand -29.9011 32.4851
rfingers 7.12502
rthumb -3.22191 2.52966
lclavicle 5.9039e-014 9.54166e-015
lhumerus -50.087 8.02225 96.164
lradius 114.753
lwrist 14.4548
lhand -11.7301 -13.8337
lfingers 7.12502
lthumb 14.3171 15.6526
rfemur -13.7039 -6.06252 15.9818
rtibia 93.2409
rfoot -1.45595 -2.85053
rtoes -5.6718
lfemur -15.1267 6.62373 -29.5584
ltibia 58.88
lfoot -35.3435 2.52654
ltoes 14.8739
100
root -2.78952 15.9829 12.717 -536.767 38.154 -526.595
lowerback 17.5304 -1.86362 0.202226
upperback 3.38702 -2.1433 -0.618949
thorax -6.21294 -0.916832 -0.306641
lowerneck -3.29262 11.546 -0.698316
upperneck -8.41544 15.3048 -12.3277
head -1.1459 8.05598 -3.75023
rclavicle 7.35503e-015 1.90833e-014
rhumerus -57.5002 6.31137 -98.2621
rradius 74.8715
rwrist 0.748096
rhand -30.2892 32.2116
rfingers 7.12502
rthumb -3.59675 2.26219
lclavicle 7.35503e-015 1.90833e-014
lhumerus -48.9468 8.18145 96.6729
lradius 115.7
lwrist 14.6022
lhand -12.4592 -14.0365
lfingers 7.12502
lthumb 13.6144 15.4983
rfemur -15.8334 -5.91518 15.9683
rtibia 94.066
rfoot -2.20562 -3.06147
rtoes -4.27528
lfemur -13.78 6.20327 -29.5348
ltibia 58.4823
lfoot -35.9649 2.37448
ltoes 14.6899
101
root -2.63281 15.9758 12.4982 -536.754 37.3079 -526.511
lowerback 17.5182 -2.15388 0.342238
upperback 3.35648 -2.496 -0.511071
thorax -6.24349 -1.09177 -0.191248
lowerneck -2.92046 11.9142 -0.661995
upperneck -8.68127 15.7618 -12.5952
head -1.24254 8.30941 -3.87477
rclavicle -1.00585e-013 5.08889e-014
rhumerus -58.6739 6.10978 -97.5105
rradius 74.9641
rwrist 0.382524
rhand -30.4091 31.8573
rfingers 7.12502
rthumb -3.71251 1.90991
lclavicle -1.00585e-013 5.08889e-014
lhumerus -48.1373 8.08202 97.0362
lradius 116.759
lwrist 15.02
lhand -13.1271 -14.1709
lfingers 7.12502
lthumb 12.9706 15.4059
rfemur -17.8492 -5.72608 16.2707
rtibia 94.4364
rfoot -2.9158 -3.35139
rtoes -4.35618
lfemur -12.2907 5.76102 -29.3405
ltibia 57.8809
lfoot -36.4149 2.36378
ltoes 14.2331
102
root -2.48 15.9872 12.2708 -536.635 36.455 -526.314
lowerback 17.4332 -2.45017 0.636395
upperback 3.32897 -2.83003 -0.406977
thorax -6.23922 -1.26102 -0.173608
lowerneck -2.57945 12.2603 -0.493429
upperneck -8.91265 16.1907 -12.9121
head -1.30755 8.54405 -4.03334
rclavicle -1.0138e-013 -6.36111e-015
rhumerus -59.9163 6.03485 -96.8895
rradius 75.2201
rwrist -0.0877315
rhand -30.336 31.5136
rfingers 7.12502
rthumb -3.64197 1.56497
lclavicle -1.0138e-013 -6.36111e-015
lhumerus -47.5654 7.72654 97.2114
lradius 117.791
lwrist 15.5496
lhand -13.6675 -14.2417
lfingers 7.12502
lthumb 12.4497 15.3675
rfemur -19.8364 -5.42285 16.8761
rtibia 94.3955
rfoot -3.63329 -3.87381
rtoes -5.96142
lfemur -10.7266 5.2619 -29.0538
ltibia 57.0382
lfoot -36.6204 2.36842
ltoes 13.4755
103
root -2.32963 16.0225 12.0325 -536.38 35.5724 -525.996
lowerback 17.2449 -2.77468 1.03944
upperback 3.27964 -3.18281 -0.243804
thorax -6.20707 -1.4428 -0.15427
lowerneck -2.30142 12.602 -0.341165
upperneck -9.05989 16.6256 -13.2643
head -1.3296 8.77857 -4.19092
rclavicle 9.85972e-014 -2.06736e-014
rhumerus -61.2203 6.25709 -96.3276
rradius 75.5681
rwrist -0.722848
rhand -30.1467 31.2884
rfingers 7.12502
rthumb -3.45915 1.33676
lclavicle 9.85972e-014 -2.06736e-014
lhumerus -47.2638 7.39799 97.2777
lradius 118.724
lwrist 16.0811
lhand -13.9133 -14.4182
lfingers 7.12502
lthumb 12.2127 15.2053
rfemur -21.6247 -4.89647 17.7121
rtibia 93.8455
rfoot -4.35735 -4.46416
rtoes -7.68765
lfemur -9.11128 4.67256 -28.6791
ltibia 55.9794
lfoot -36.502 2.3911
ltoes 12.8807
104
root -2.1818 16.0793 11.7855 -536.069 34.6831 -525.581
lowerback 17.0435 -3.10786 1.56133
upperback 3.21074 -3.52788 -0.0708254
thorax -6.19762 -1.62343 -0.194118
lowerneck -2.02416 12.9308 -0.117683
upperneck -9.1595 17.0465 -13.6047
head -1.32907 9.00096 -4.35299
rclavicle -2.28602e-014 -4.77083e-015
rhumerus -62.5302 6.55832 -95.8485
rradius 75.871
rwrist -1.20086
rhand -29.8908 31.2304
rfingers 7.12502
rthumb -3.21202 1.27488
lclavicle -2.28602e-014 -4.77083e-015
lhumerus -47.1716 7.03888 97.2229
lradius 119.546
lwrist 16.5727
lhand -13.8219 -14.5987
lfingers 7.12502
lthumb 12.3008 15.0195
rfemur -23.1606 -4.17347 18.6707
rtibia 92.8342
rfoot -4.94118 -4.83604
rtoes -8.64372
lfemur -7.3953 4.06906 -28.2273
ltibia 54.7496
lfoot -36.1403 2.51355
ltoes 11.9143
105
root -2.03669 16.1525 11.5313 -535.678 33.7719 -525.109
lowerback 16.7363 -3.44871 2.1714
upperback 3.15042 -3.8717 0.115392
thorax -6.13005 -1.80505 -0.276188
lowerneck -1.90865 13.2341 0.142051
upperneck -9.11847 17.4531 -13.9479
head -1.24851 9.20492 -4.49736
rclavicle 1.59028e-015 -1.59028e-015
rhumerus -63.6585 6.85767 -95.3957
rradius 75.9697
rwrist -1.45567
rhand -29.6303 31.4941
rfingers 7.12502
rthumb -2.96038 1.5349
lclavicle 1.59028e-015 -1.59028e-015
lhumerus -47.1319 6.6494 97.0766
lradius 120.264
lwrist 16.9514
lhand -13.4135 -14.77
lfingers 7.12502
lthumb 12.6946 14.8242
rfemur -24.5445 -3.32015 19.7107
rtibia 91.4062
rfoot -5.38928 -5.08675
rtoes -9.58886
lfemur -5.72673 3.43892 -27.7401
ltibia 53.4316
lfoot -35.5107 2.73108
ltoes 10.836
